<svg width="100" height="100" viewBox="0 0 100 100" fill="none" xmlns="http://www.w3.org/2000/svg">
<g clip-path="url(#clip0_570_4072)">
<g filter="url(#filter0_bd_570_4072)">
<path d="M77.1352 68.9022C76.8291 69.0788 76.4528 69.2148 76.0336 69.2918L62.526 71.771C58.6918 72.4736 55.2477 72.7667 51.9943 72.6703C44.8767 72.4608 38.1963 70.7748 33.1858 67.9185L16.6882 58.5212C13.2637 56.6501 13.9237 52.0531 15.111 50.6302L26.1459 41.6128C26.7701 40.8529 27.8479 40.2255 29.1702 39.8484L51.0802 33.5558C53.5298 32.8497 56.4578 33.106 58.3573 34.1903L74.867 43.5947C79.8727 46.4453 83.2443 46.7708 83.7008 50.8708C84.3433 54.884 83.0757 58.2437 81.9069 60.4554L77.7935 68.2625C77.6675 68.5057 77.4389 68.7241 77.1352 68.9022Z" fill="#05D536" shape-rendering="crispEdges"/>
<path d="M77.2074 68.9431L77.2068 68.9434C76.8898 69.1263 76.4996 69.2675 76.0642 69.3474L62.5567 71.8266L62.5567 71.8266C58.7134 72.5309 55.257 72.8255 51.9891 72.7286C44.8471 72.5184 38.1431 70.8266 33.1147 67.9601C33.1147 67.9601 33.1147 67.9601 33.1147 67.9601L16.6187 58.5636C16.6184 58.5635 16.6181 58.5633 16.6179 58.5632C14.8767 57.6114 14.184 55.975 14.0691 54.4101C13.9541 52.844 14.4162 51.3283 15.0198 50.6049L15.0271 50.5961L15.0283 50.5965L26.0582 41.5832C26.6929 40.8133 27.7856 40.1782 29.1252 39.7961C29.1253 39.7961 29.1253 39.796 29.1254 39.796L51.035 33.5035L77.2074 68.9431ZM77.2074 68.9431C77.5222 68.7586 77.7594 68.5319 77.8903 68.2794C77.8903 68.2794 77.8904 68.2793 77.8904 68.2792L82.0037 60.4724L77.2074 68.9431ZM58.4285 34.1488L58.4284 34.1488C56.4971 33.0463 53.5222 32.7867 51.0351 33.5035L58.4285 34.1488ZM58.4285 34.1488L74.9381 43.5531C76.1862 44.2639 77.3326 44.8174 78.3598 45.3128L78.3763 45.3208C79.3955 45.8124 80.3001 46.2488 81.0641 46.7246C82.6072 47.6857 83.5719 48.8051 83.8017 50.8662C84.4455 54.889 83.1748 58.2563 82.0037 60.4724L58.4285 34.1488Z" stroke="url(#paint0_linear_570_4072)" stroke-width="0.165212" stroke-linecap="round" stroke-linejoin="round" shape-rendering="crispEdges"/>
</g>
<g filter="url(#filter1_b_570_4072)">
<mask id="path-3-outside-1_570_4072" maskUnits="userSpaceOnUse" x="4.76666" y="23.6102" width="94.4139" height="54.4703" fill="black">
<rect fill="white" x="4.76666" y="23.6102" width="94.4139" height="54.4703"/>
<path d="M77.1349 64.8557C76.8288 65.0323 76.4524 65.1684 76.0332 65.2453L62.5257 67.7245C58.6914 68.4272 55.2473 68.7203 51.994 68.6238C44.8764 68.4143 38.196 66.7283 33.1855 63.8721L16.6879 54.4747C14.7835 53.3904 14.3073 51.7056 15.4945 50.2828L26.1455 37.5663C26.7698 36.8064 27.8475 36.179 29.1699 35.8019L51.0799 29.5093C53.5295 28.8032 56.4575 29.0595 58.357 30.1439L74.8666 39.5482C79.8724 42.3988 82.8788 46.2268 83.3353 50.3268C83.5442 52.2076 83.0754 54.1972 81.9065 56.4089L77.7931 64.216C77.6671 64.4592 77.4386 64.6777 77.1349 64.8557Z"/>
</mask>
<path d="M77.1349 64.8557C76.8288 65.0323 76.4524 65.1684 76.0332 65.2453L62.5257 67.7245C58.6914 68.4272 55.2473 68.7203 51.994 68.6238C44.8764 68.4143 38.196 66.7283 33.1855 63.8721L16.6879 54.4747C14.7835 53.3904 14.3073 51.7056 15.4945 50.2828L26.1455 37.5663C26.7698 36.8064 27.8475 36.179 29.1699 35.8019L51.0799 29.5093C53.5295 28.8032 56.4575 29.0595 58.357 30.1439L74.8666 39.5482C79.8724 42.3988 82.8788 46.2268 83.3353 50.3268C83.5442 52.2076 83.0754 54.1972 81.9065 56.4089L77.7931 64.216C77.6671 64.4592 77.4386 64.6777 77.1349 64.8557Z" fill="url(#paint1_linear_570_4072)"/>
<path d="M77.5171 65.0762C77.7282 64.9544 77.7282 64.757 77.5171 64.6352C77.306 64.5134 76.9638 64.5134 76.7527 64.6352L77.5171 65.0762ZM76.0332 65.2453L75.8694 64.9481L75.8694 64.9481L76.0332 65.2453ZM62.5257 67.7245L62.6893 68.0217L62.6896 68.0216L62.5257 67.7245ZM51.994 68.6238L52.0217 68.3123L52.0215 68.3123L51.994 68.6238ZM33.1855 63.8721L33.5654 63.6502L33.5652 63.6502L33.1855 63.8721ZM16.6879 54.4747L17.0677 54.2528L17.0676 54.2528L16.6879 54.4747ZM15.4945 50.2828L15.0079 50.1471L15.0075 50.1475L15.4945 50.2828ZM26.1455 37.5663L26.6322 37.702L26.634 37.6998L26.1455 37.5663ZM29.1699 35.8019L29.4094 36.0814L29.4108 36.0811L29.1699 35.8019ZM51.0799 29.5093L51.3208 29.7885L51.3215 29.7883L51.0799 29.5093ZM58.357 30.1439L57.9768 30.3655L57.9772 30.3658L58.357 30.1439ZM74.8666 39.5482L74.4869 39.7701L74.4869 39.7701L74.8666 39.5482ZM83.3353 50.3268L83.8747 50.3068L83.8747 50.3068L83.3353 50.3268ZM81.9065 56.4089L81.3895 56.318L81.3894 56.3182L81.9065 56.4089ZM77.7931 64.216L77.276 64.1253L77.2753 64.1267L77.7931 64.216ZM76.7497 64.6369C76.5403 64.7597 76.543 64.9571 76.7557 65.0779C76.9685 65.1987 77.3107 65.1972 77.5201 65.0744L76.7497 64.6369ZM76.7527 64.6352C76.5046 64.7783 76.2022 64.887 75.8694 64.9481L76.1971 65.5425C76.7027 65.4497 77.1529 65.2863 77.5171 65.0762L76.7527 64.6352ZM75.8694 64.9481L62.3618 67.4273L62.6896 68.0216L76.1971 65.5425L75.8694 64.9481ZM62.3621 67.4273C58.5759 68.1211 55.1973 68.4065 52.0217 68.3123L51.9662 68.9352C55.2973 69.034 58.807 68.7332 62.6893 68.0217L62.3621 67.4273ZM52.0215 68.3123C45.0345 68.1067 38.4801 66.4519 33.5654 63.6502L32.8056 64.0939C37.9119 67.0048 44.7183 68.7219 51.9665 68.9352L52.0215 68.3123ZM33.5652 63.6502L17.0677 54.2528L16.3081 54.6966L32.8057 64.094L33.5652 63.6502ZM17.0676 54.2528C15.3333 53.2653 14.891 51.7251 15.9816 50.418L15.0075 50.1475C13.7237 51.6862 14.2336 53.5154 16.3082 54.6967L17.0676 54.2528ZM15.9812 50.4184L26.6322 37.702L25.6589 37.4306L15.0079 50.1471L15.9812 50.4184ZM26.634 37.6998C27.2051 37.0046 28.1941 36.4281 29.4094 36.0814L28.9303 35.5223C27.5009 35.93 26.3344 36.6083 25.6571 37.4327L26.634 37.6998ZM29.4108 36.0811L51.3208 29.7885L50.839 29.2301L28.929 35.5227L29.4108 36.0811ZM51.3215 29.7883C53.5705 29.14 56.247 29.378 57.9768 30.3655L58.7371 29.9222C56.6679 28.7409 53.4885 28.4664 50.8383 29.2303L51.3215 29.7883ZM57.9772 30.3658L74.4869 39.7701L75.2464 39.3263L58.7367 29.922L57.9772 30.3658ZM74.4869 39.7701C79.3969 42.5663 82.3478 46.322 82.7959 50.3468L83.8747 50.3068C83.4099 46.1316 80.3478 42.2314 75.2463 39.3263L74.4869 39.7701ZM82.7959 50.3467C82.9998 52.1826 82.5436 54.1341 81.3895 56.318L82.4235 56.4999C83.6071 54.2603 84.0886 52.2327 83.8747 50.3068L82.7959 50.3467ZM81.3894 56.3182L77.276 64.1253L78.3103 64.3067L82.4237 56.4996L81.3894 56.3182ZM77.2753 64.1267C77.1753 64.3197 76.9934 64.4941 76.7497 64.6369L77.5201 65.0744C77.8838 64.8613 78.159 64.5987 78.311 64.3053L77.2753 64.1267Z" fill="url(#paint2_linear_570_4072)" mask="url(#path-3-outside-1_570_4072)"/>
</g>
<g filter="url(#filter2_d_570_4072)">
<path d="M17.4443 37.0517L18.4316 36.4818C35.3263 26.7285 63.4515 28.3297 76.7205 39.8004L73.585 45.6153C73.0668 46.5764 72.0373 47.4189 70.6427 48.0233L53.2231 50.649C51.8978 50.8488 50.5012 50.8263 49.1972 50.5843L32.317 47.4512L17.4443 37.0517Z" fill="#27F171"/>
</g>
<g filter="url(#filter3_b_570_4072)">
<path d="M72.7093 47.5929L72.7088 47.5932C72.3918 47.7761 72.0016 47.9173 71.5662 47.9972L58.0587 50.4764L58.0586 50.4764C54.2154 51.1807 50.759 51.4753 47.4911 51.3783C40.3491 51.1682 33.6451 49.4763 28.6167 46.6099C28.6166 46.6099 28.6166 46.6099 28.6166 46.6099L12.1206 37.2134C12.1204 37.2132 12.1201 37.2131 12.1198 37.213C10.3786 36.2612 9.68598 34.6248 9.57103 33.0599C9.45601 31.4938 9.91813 29.9781 10.5217 29.2547L10.5291 29.2458L10.5302 29.2463L21.5602 20.233C22.1948 19.4631 23.2875 18.828 24.6272 18.4459C24.6272 18.4458 24.6273 18.4458 24.6273 18.4458L46.5369 12.1533L72.7093 47.5929ZM72.7093 47.5929C73.0241 47.4084 73.2614 47.1817 73.3922 46.9292C73.3923 46.9291 73.3923 46.929 73.3924 46.929L77.5056 39.1222L72.7093 47.5929ZM53.9304 12.7986L53.9303 12.7986C51.9991 11.6961 49.0242 11.4365 46.5371 12.1533L53.9304 12.7986ZM53.9304 12.7986L70.44 22.2029C71.6881 22.9137 72.8345 23.4671 73.8617 23.9626L73.8782 23.9706C74.8974 24.4622 75.8021 24.8986 76.566 25.3743C78.1092 26.3354 79.0739 27.4548 79.3036 29.516C79.9474 33.5388 78.6768 36.9061 77.5056 39.1222L53.9304 12.7986Z" fill="white" fill-opacity="0.5" stroke="url(#paint3_linear_570_4072)" stroke-width="0.165212" stroke-linecap="round" stroke-linejoin="round"/>
</g>
<g filter="url(#filter4_b_570_4072)">
<mask id="path-7-outside-2_570_4072" maskUnits="userSpaceOnUse" x="0.269099" y="2.25972" width="94.4139" height="54.4703" fill="black">
<rect fill="white" x="0.269099" y="2.25972" width="94.4139" height="54.4703"/>
<path d="M72.6374 43.5052C72.3312 43.6818 71.9549 43.8179 71.5357 43.8948L58.0281 46.374C54.1939 47.0767 50.7498 47.3698 47.4964 47.2733C40.3788 47.0639 33.6984 45.3779 28.6879 42.5216L12.1903 33.1243C10.2859 32.0399 9.80975 30.3552 10.997 28.9323L21.648 16.2158C22.2722 15.456 23.35 14.8286 24.6723 14.4514L46.5823 8.15882C49.0319 7.45276 51.9599 7.70901 53.8594 8.7934L70.3691 18.1977C75.3748 21.0484 78.3813 24.8763 78.8378 28.9763C79.0467 30.8572 78.5778 32.8467 77.409 35.0585L73.2956 42.8655C73.1696 43.1087 72.941 43.3272 72.6374 43.5052Z"/>
</mask>
<path d="M72.6374 43.5052C72.3312 43.6818 71.9549 43.8179 71.5357 43.8948L58.0281 46.374C54.1939 47.0767 50.7498 47.3698 47.4964 47.2733C40.3788 47.0639 33.6984 45.3779 28.6879 42.5216L12.1903 33.1243C10.2859 32.0399 9.80975 30.3552 10.997 28.9323L21.648 16.2158C22.2722 15.456 23.35 14.8286 24.6723 14.4514L46.5823 8.15882C49.0319 7.45276 51.9599 7.70901 53.8594 8.7934L70.3691 18.1977C75.3748 21.0484 78.3813 24.8763 78.8378 28.9763C79.0467 30.8572 78.5778 32.8467 77.409 35.0585L73.2956 42.8655C73.1696 43.1087 72.941 43.3272 72.6374 43.5052Z" fill="white" fill-opacity="0.5"/>
<path d="M73.0196 43.7257C73.2306 43.6039 73.2306 43.4065 73.0196 43.2847C72.8085 43.1629 72.4662 43.1629 72.2551 43.2847L73.0196 43.7257ZM71.5357 43.8948L71.3718 43.5977L71.3718 43.5977L71.5357 43.8948ZM58.0281 46.374L58.1918 46.6712L58.192 46.6712L58.0281 46.374ZM47.4964 47.2733L47.5242 46.9619L47.524 46.9619L47.4964 47.2733ZM28.6879 42.5216L29.0678 42.2998L29.0677 42.2997L28.6879 42.5216ZM12.1903 33.1243L12.5701 32.9024L12.57 32.9023L12.1903 33.1243ZM10.997 28.9323L10.5103 28.7966L10.5099 28.797L10.997 28.9323ZM21.648 16.2158L22.1347 16.3515L22.1364 16.3494L21.648 16.2158ZM24.6723 14.4514L24.9119 14.731L24.9132 14.7306L24.6723 14.4514ZM46.5823 8.15882L46.8232 8.43799L46.8239 8.43779L46.5823 8.15882ZM53.8594 8.7934L53.4792 9.01507L53.4796 9.01531L53.8594 8.7934ZM70.3691 18.1977L69.9893 18.4196L69.9894 18.4197L70.3691 18.1977ZM78.8378 28.9763L79.3772 28.9564L79.3772 28.9563L78.8378 28.9763ZM77.409 35.0585L76.8919 34.9675L76.8918 34.9678L77.409 35.0585ZM73.2956 42.8655L72.7784 42.7748L72.7777 42.7762L73.2956 42.8655ZM72.2521 43.2865C72.0427 43.4092 72.0454 43.6066 72.2582 43.7275C72.4709 43.8483 72.8132 43.8467 73.0226 43.724L72.2521 43.2865ZM72.2551 43.2847C72.0071 43.4278 71.7046 43.5366 71.3718 43.5977L71.6995 44.192C72.2051 44.0992 72.6554 43.9358 73.0196 43.7257L72.2551 43.2847ZM71.3718 43.5977L57.8643 46.0768L58.192 46.6712L71.6995 44.192L71.3718 43.5977ZM57.8645 46.0768C54.0783 46.7707 50.6998 47.0561 47.5242 46.9619L47.4687 47.5847C50.7998 47.6835 54.3095 47.3827 58.1918 46.6712L57.8645 46.0768ZM47.524 46.9619C40.537 46.7563 33.9825 45.1014 29.0678 42.2998L28.308 42.7434C33.4143 45.6543 40.2207 47.3715 47.4689 47.5848L47.524 46.9619ZM29.0677 42.2997L12.5701 32.9024L11.8106 33.3462L28.3081 42.7435L29.0677 42.2997ZM12.57 32.9023C10.8358 31.9148 10.3934 30.3746 11.484 29.0675L10.5099 28.797C9.22609 30.3357 9.73608 32.165 11.8107 33.3462L12.57 32.9023ZM11.4837 29.068L22.1347 16.3515L21.1613 16.0801L10.5103 28.7966L11.4837 29.068ZM22.1364 16.3494C22.7075 15.6542 23.6965 15.0776 24.9119 14.731L24.4328 14.1719C23.0034 14.5796 21.8368 15.2578 21.1595 16.0823L22.1364 16.3494ZM24.9132 14.7306L46.8232 8.43799L46.3414 7.87966L24.4314 14.1723L24.9132 14.7306ZM46.8239 8.43779C49.0729 7.78953 51.7495 8.02758 53.4792 9.01506L54.2396 8.57173C52.1703 7.39043 48.9909 7.11598 46.3408 7.87986L46.8239 8.43779ZM53.4796 9.01531L69.9893 18.4196L70.7488 17.9758L54.2392 8.57149L53.4796 9.01531ZM69.9894 18.4197C74.8994 21.2158 77.8502 24.9716 78.2984 28.9963L79.3772 28.9563C78.9123 24.7811 75.8502 20.8809 70.7488 17.9758L69.9894 18.4197ZM78.2984 28.9963C78.5022 30.8322 78.0461 32.7837 76.8919 34.9675L77.926 35.1494C79.1096 32.9098 79.5911 30.8822 79.3772 28.9564L78.2984 28.9963ZM76.8918 34.9678L72.7784 42.7748L73.8127 42.9562L77.9261 35.1491L76.8918 34.9678ZM72.7777 42.7762C72.6777 42.9692 72.4959 43.1436 72.2521 43.2865L73.0226 43.724C73.3862 43.5108 73.6615 43.2482 73.8135 42.9548L72.7777 42.7762Z" fill="url(#paint4_linear_570_4072)" mask="url(#path-7-outside-2_570_4072)"/>
</g>
<g filter="url(#filter5_i_570_4072)">
<path d="M40.9395 32.8362L40.9395 32.8363C40.9286 33.6188 42.0193 34.2403 43.3789 34.2273C43.379 34.2273 43.379 34.2273 43.3791 34.2273L52.5423 34.1243C53.2248 34.1164 53.8397 33.9498 54.2901 33.6872C54.7403 33.4249 55.0199 33.0676 55.0243 32.6738L55.0243 32.6738L55.1564 21.7864L55.1564 21.7862C55.1695 21.0052 54.0766 20.3823 52.7145 20.3967C51.3558 20.411 50.2437 21.0603 50.2327 21.8472L40.9395 32.8362ZM40.9395 32.8362C40.9481 32.0509 42.0599 31.4015 43.4215 31.3858L50.0133 31.3106L50.1168 31.3094L50.1175 31.2497L50.2327 21.8472L40.9395 32.8362Z" fill="#26F172" stroke="url(#paint5_linear_570_4072)" stroke-width="0.173611"/>
</g>
</g>
<defs>
<filter id="filter0_bd_570_4072" x="0.733211" y="29.0785" width="96.5599" height="73.4647" filterUnits="userSpaceOnUse" color-interpolation-filters="sRGB">
<feFlood flood-opacity="0" result="BackgroundImageFix"/>
<feGaussianBlur in="BackgroundImageFix" stdDeviation="1.98255"/>
<feComposite in2="SourceAlpha" operator="in" result="effect1_backgroundBlur_570_4072"/>
<feColorMatrix in="SourceAlpha" type="matrix" values="0 0 0 0 0 0 0 0 0 0 0 0 0 0 0 0 0 0 127 0" result="hardAlpha"/>
<feOffset dy="16.5212"/>
<feGaussianBlur stdDeviation="6.60849"/>
<feComposite in2="hardAlpha" operator="out"/>
<feColorMatrix type="matrix" values="0 0 0 0 0.343982 0 0 0 0 1 0 0 0 0 0.448945 0 0 0 0.5 0"/>
<feBlend mode="normal" in2="effect1_backgroundBlur_570_4072" result="effect2_dropShadow_570_4072"/>
<feBlend mode="normal" in="SourceGraphic" in2="effect2_dropShadow_570_4072" result="shape"/>
</filter>
<filter id="filter1_b_570_4072" x="10.3425" y="24.837" width="77.5464" height="48.0816" filterUnits="userSpaceOnUse" color-interpolation-filters="sRGB">
<feFlood flood-opacity="0" result="BackgroundImageFix"/>
<feGaussianBlur in="BackgroundImageFix" stdDeviation="1.98255"/>
<feComposite in2="SourceAlpha" operator="in" result="effect1_backgroundBlur_570_4072"/>
<feBlend mode="normal" in="SourceGraphic" in2="effect1_backgroundBlur_570_4072" result="shape"/>
</filter>
<filter id="filter2_d_570_4072" x="10.9726" y="28.6046" width="72.2198" height="33.6519" filterUnits="userSpaceOnUse" color-interpolation-filters="sRGB">
<feFlood flood-opacity="0" result="BackgroundImageFix"/>
<feColorMatrix in="SourceAlpha" type="matrix" values="0 0 0 0 0 0 0 0 0 0 0 0 0 0 0 0 0 0 127 0" result="hardAlpha"/>
<feOffset dy="5.00087"/>
<feGaussianBlur stdDeviation="3.23586"/>
<feComposite in2="hardAlpha" operator="out"/>
<feColorMatrix type="matrix" values="0 0 0 0 0 0 0 0 0 0.824769 0 0 0 0 0.300654 0 0 0 1 0"/>
<feBlend mode="normal" in2="BackgroundImageFix" result="effect1_dropShadow_570_4072"/>
<feBlend mode="normal" in="SourceGraphic" in2="effect1_dropShadow_570_4072" result="shape"/>
</filter>
<filter id="filter3_b_570_4072" x="6.51046" y="8.75167" width="76.0094" height="45.6447" filterUnits="userSpaceOnUse" color-interpolation-filters="sRGB">
<feFlood flood-opacity="0" result="BackgroundImageFix"/>
<feGaussianBlur in="BackgroundImageFix" stdDeviation="1.47084"/>
<feComposite in2="SourceAlpha" operator="in" result="effect1_backgroundBlur_570_4072"/>
<feBlend mode="normal" in="SourceGraphic" in2="effect1_backgroundBlur_570_4072" result="shape"/>
</filter>
<filter id="filter4_b_570_4072" x="3.92668" y="1.56828" width="81.383" height="51.9181" filterUnits="userSpaceOnUse" color-interpolation-filters="sRGB">
<feFlood flood-opacity="0" result="BackgroundImageFix"/>
<feGaussianBlur in="BackgroundImageFix" stdDeviation="2.94169"/>
<feComposite in2="SourceAlpha" operator="in" result="effect1_backgroundBlur_570_4072"/>
<feBlend mode="normal" in="SourceGraphic" in2="effect1_backgroundBlur_570_4072" result="shape"/>
</filter>
<filter id="filter5_i_570_4072" x="40.833" y="20.3351" width="14.4297" height="14.2867" filterUnits="userSpaceOnUse" color-interpolation-filters="sRGB">
<feFlood flood-opacity="0" result="BackgroundImageFix"/>
<feBlend mode="normal" in="SourceGraphic" in2="BackgroundImageFix" result="shape"/>
<feColorMatrix in="SourceAlpha" type="matrix" values="0 0 0 0 0 0 0 0 0 0 0 0 0 0 0 0 0 0 127 0" result="hardAlpha"/>
<feOffset dy="0.773665"/>
<feGaussianBlur stdDeviation="0.1664"/>
<feComposite in2="hardAlpha" operator="arithmetic" k2="-1" k3="1"/>
<feColorMatrix type="matrix" values="0 0 0 0 1 0 0 0 0 1 0 0 0 0 1 0 0 0 1 0"/>
<feBlend mode="normal" in2="shape" result="effect1_innerShadow_570_4072"/>
</filter>
<linearGradient id="paint0_linear_570_4072" x1="18.9954" y1="52.0755" x2="85.2261" y2="55.5023" gradientUnits="userSpaceOnUse">
<stop stop-color="white" stop-opacity="0.25"/>
<stop offset="1" stop-color="white" stop-opacity="0"/>
</linearGradient>
<linearGradient id="paint1_linear_570_4072" x1="27.512" y1="36.4735" x2="52.1896" y2="79.2474" gradientUnits="userSpaceOnUse">
<stop stop-color="#24EF7F"/>
<stop offset="1" stop-color="#26F16D"/>
</linearGradient>
<linearGradient id="paint2_linear_570_4072" x1="49.0492" y1="45.7317" x2="51.1379" y2="70.7603" gradientUnits="userSpaceOnUse">
<stop stop-color="white" stop-opacity="0.43"/>
<stop offset="0.846595" stop-color="white"/>
<stop offset="1" stop-color="white" stop-opacity="0"/>
</linearGradient>
<linearGradient id="paint3_linear_570_4072" x1="14.4974" y1="30.7253" x2="80.7281" y2="34.152" gradientUnits="userSpaceOnUse">
<stop stop-color="white" stop-opacity="0.25"/>
<stop offset="1" stop-color="white" stop-opacity="0"/>
</linearGradient>
<linearGradient id="paint4_linear_570_4072" x1="56.4856" y1="48.7328" x2="60.607" y2="14.1596" gradientUnits="userSpaceOnUse">
<stop stop-color="white" stop-opacity="0.79"/>
<stop offset="1" stop-color="white" stop-opacity="0"/>
</linearGradient>
<linearGradient id="paint5_linear_570_4072" x1="39.2423" y1="29.2516" x2="56.935" y2="37.2614" gradientUnits="userSpaceOnUse">
<stop stop-color="white" stop-opacity="0.25"/>
<stop offset="1" stop-color="white" stop-opacity="0"/>
</linearGradient>
<clipPath id="clip0_570_4072">
<rect width="100" height="100" fill="white"/>
</clipPath>
</defs>
</svg>
