<svg width="388" height="72" viewBox="0 0 388 72" fill="none" xmlns="http://www.w3.org/2000/svg">
<path d="M96.4273 19.6714C97.5845 18.0429 99.1702 16.6929 101.184 15.6214C103.242 14.5071 105.577 13.95 108.192 13.95C111.234 13.95 113.977 14.7 116.42 16.2C118.906 17.7 120.856 19.8429 122.27 22.6286C123.727 25.3714 124.456 28.5643 124.456 32.2071C124.456 35.85 123.727 39.0857 122.27 41.9143C120.856 44.7 118.906 46.8643 116.42 48.4072C113.977 49.95 111.234 50.7214 108.192 50.7214C105.577 50.7214 103.263 50.1857 101.249 49.1143C99.2773 48.0429 97.6702 46.6929 96.4273 45.0643V67.1143H87.4273V14.5286H96.4273V19.6714ZM115.263 32.2071C115.263 30.0643 114.813 28.2214 113.913 26.6786C113.056 25.0929 111.899 23.8929 110.442 23.0786C109.027 22.2643 107.484 21.8571 105.813 21.8571C104.184 21.8571 102.642 22.2857 101.184 23.1429C99.7702 23.9571 98.613 25.1571 97.713 26.7429C96.8559 28.3286 96.4273 30.1929 96.4273 32.3357C96.4273 34.4786 96.8559 36.3429 97.713 37.9286C98.613 39.5143 99.7702 40.7357 101.184 41.5929C102.642 42.4071 104.184 42.8143 105.813 42.8143C107.484 42.8143 109.027 42.3857 110.442 41.5286C111.899 40.6714 113.056 39.45 113.913 37.8643C114.813 36.2786 115.263 34.3929 115.263 32.2071Z" fill="#EDEDF4"/>
<path d="M146.598 50.7214C143.17 50.7214 140.084 49.9714 137.341 48.4714C134.598 46.9286 132.434 44.7643 130.848 41.9786C129.305 39.1929 128.534 35.9786 128.534 32.3357C128.534 28.6929 129.327 25.4786 130.912 22.6929C132.541 19.9071 134.748 17.7643 137.534 16.2643C140.32 14.7214 143.427 13.95 146.855 13.95C150.284 13.95 153.391 14.7214 156.177 16.2643C158.962 17.7643 161.148 19.9071 162.734 22.6929C164.362 25.4786 165.177 28.6929 165.177 32.3357C165.177 35.9786 164.341 39.1929 162.67 41.9786C161.041 44.7643 158.812 46.9286 155.984 48.4714C153.198 49.9714 150.07 50.7214 146.598 50.7214ZM146.598 42.8786C148.227 42.8786 149.748 42.4929 151.162 41.7214C152.62 40.9072 153.777 39.7071 154.634 38.1214C155.491 36.5357 155.92 34.6071 155.92 32.3357C155.92 28.95 155.02 26.3571 153.22 24.5571C151.462 22.7143 149.298 21.7929 146.727 21.7929C144.155 21.7929 141.991 22.7143 140.234 24.5571C138.52 26.3571 137.662 28.95 137.662 32.3357C137.662 35.7214 138.498 38.3357 140.17 40.1786C141.884 41.9786 144.027 42.8786 146.598 42.8786Z" fill="#EDEDF4"/>
<path d="M180.566 2.57143V50.1429H171.566V2.57143H180.566Z" fill="#EDEDF4"/>
<path d="M222.868 14.5286V50.1429H213.803V45.6429C212.646 47.1857 211.125 48.4072 209.239 49.3072C207.396 50.1643 205.382 50.5929 203.196 50.5929C200.411 50.5929 197.946 50.0143 195.803 48.8571C193.661 47.6571 191.968 45.9214 190.725 43.65C189.525 41.3357 188.925 38.5929 188.925 35.4214V14.5286H197.925V34.1357C197.925 36.9643 198.632 39.15 200.046 40.6929C201.461 42.1929 203.389 42.9429 205.832 42.9429C208.318 42.9429 210.268 42.1929 211.682 40.6929C213.096 39.15 213.803 36.9643 213.803 34.1357V14.5286H222.868Z" fill="#EDEDF4"/>
<path d="M245.164 50.7214C242.25 50.7214 239.635 50.2071 237.321 49.1786C235.007 48.1071 233.164 46.6714 231.793 44.8714C230.464 43.0714 229.735 41.0786 229.607 38.8929H238.671C238.843 40.2643 239.507 41.4 240.664 42.3C241.864 43.2 243.343 43.65 245.1 43.65C246.814 43.65 248.143 43.3071 249.085 42.6214C250.071 41.9357 250.564 41.0571 250.564 39.9857C250.564 38.8286 249.964 37.9714 248.764 37.4143C247.607 36.8143 245.743 36.1714 243.171 35.4857C240.514 34.8429 238.328 34.1786 236.614 33.4929C234.943 32.8071 233.485 31.7571 232.243 30.3429C231.043 28.9286 230.443 27.0214 230.443 24.6214C230.443 22.65 231 20.85 232.114 19.2214C233.271 17.5929 234.9 16.3071 237 15.3643C239.143 14.4214 241.65 13.95 244.521 13.95C248.764 13.95 252.15 15.0214 254.678 17.1643C257.207 19.2643 258.6 22.1143 258.857 25.7143H250.243C250.114 24.3 249.514 23.1857 248.443 22.3714C247.414 21.5143 246.021 21.0857 244.264 21.0857C242.635 21.0857 241.371 21.3857 240.471 21.9857C239.614 22.5857 239.185 23.4214 239.185 24.4929C239.185 25.6929 239.785 26.6143 240.985 27.2571C242.185 27.8571 244.05 28.4786 246.578 29.1214C249.15 29.7643 251.271 30.4286 252.943 31.1143C254.614 31.8 256.05 32.8714 257.25 34.3286C258.493 35.7429 259.135 37.6286 259.178 39.9857C259.178 42.0429 258.6 43.8857 257.443 45.5143C256.328 47.1429 254.7 48.4286 252.557 49.3714C250.457 50.2714 247.993 50.7214 245.164 50.7214Z" fill="#EDEDF4"/>
<path d="M275.892 19.6716C277.05 18.043 278.635 16.693 280.65 15.6216C282.707 14.5073 285.042 13.9501 287.657 13.9501C290.7 13.9501 293.442 14.7001 295.885 16.2001C298.371 17.7001 300.321 19.843 301.735 22.6287C303.192 25.3716 303.921 28.5644 303.921 32.2073C303.921 35.8501 303.192 39.0858 301.735 41.9144C300.321 44.7001 298.371 46.8644 295.885 48.4073C293.442 49.9501 290.7 50.7216 287.657 50.7216C285.042 50.7216 282.728 50.1858 280.714 49.1144C278.742 48.043 277.135 46.693 275.892 45.0644V67.1144H266.892V14.5287H275.892V19.6716ZM294.728 32.2073C294.728 30.0644 294.278 28.2216 293.378 26.6787C292.521 25.093 291.364 23.893 289.907 23.0787C288.492 22.2644 286.95 21.8573 285.278 21.8573C283.65 21.8573 282.107 22.2858 280.65 23.143C279.235 23.9573 278.078 25.1573 277.178 26.743C276.321 28.3287 275.892 30.193 275.892 32.3358C275.892 34.4787 276.321 36.343 277.178 37.9287C278.078 39.5144 279.235 40.7358 280.65 41.593C282.107 42.4073 283.65 42.8144 285.278 42.8144C286.95 42.8144 288.492 42.3858 289.907 41.5287C291.364 40.6716 292.521 39.4501 293.378 37.8644C294.278 36.2787 294.728 34.393 294.728 32.2073Z" fill="#30B5ED"/>
<path d="M307.935 32.2073C307.935 28.6073 308.642 25.4144 310.056 22.6287C311.513 19.843 313.463 17.7001 315.906 16.2001C318.392 14.7001 321.156 13.9501 324.199 13.9501C326.856 13.9501 329.17 14.4858 331.142 15.5573C333.156 16.6287 334.763 17.9787 335.963 19.6073V14.5287H345.027V50.143H335.963V44.9358C334.806 46.6073 333.199 48.0001 331.142 49.1144C329.127 50.1858 326.792 50.7216 324.135 50.7216C321.135 50.7216 318.392 49.9501 315.906 48.4073C313.463 46.8644 311.513 44.7001 310.056 41.9144C308.642 39.0858 307.935 35.8501 307.935 32.2073ZM335.963 32.3358C335.963 30.1501 335.535 28.2858 334.677 26.743C333.82 25.1573 332.663 23.9573 331.206 23.143C329.749 22.2858 328.185 21.8573 326.513 21.8573C324.842 21.8573 323.299 22.2644 321.885 23.0787C320.47 23.893 319.313 25.093 318.413 26.6787C317.556 28.2216 317.127 30.0644 317.127 32.2073C317.127 34.3501 317.556 36.2358 318.413 37.8644C319.313 39.4501 320.47 40.6716 321.885 41.5287C323.342 42.3858 324.885 42.8144 326.513 42.8144C328.185 42.8144 329.749 42.4073 331.206 41.593C332.663 40.7358 333.82 39.5358 334.677 37.993C335.535 36.4073 335.963 34.5216 335.963 32.3358Z" fill="#30B5ED"/>
<path d="M387.677 14.5287L365.627 66.9858H356.048L363.763 49.243L349.491 14.5287H359.584L368.777 39.4073L378.098 14.5287H387.677Z" fill="#30B5ED"/>
<path d="M71.9813 36.0037C71.9813 38.6895 71.6867 41.3043 71.131 43.8185C67.6664 59.4778 54.0093 71.3062 37.4694 71.9702C36.9808 71.9925 36.4848 72 35.9888 72C29.9472 72 24.2486 70.5079 19.2512 67.8782C17.9832 67.2104 16.7562 66.4681 15.5852 65.6587C14.4104 64.8492 13.2879 63.9689 12.2175 63.0289C11.0316 61.9882 9.91649 60.8691 8.87972 59.6792C7.01501 57.5418 5.39272 55.1806 4.06878 52.6403C3.7033 51.9428 3.3602 51.2303 3.03947 50.5029C2.43158 49.1265 1.91319 47.7053 1.47685 46.2431C0.514659 42.9978 -7.62939e-06 39.5586 -7.62939e-06 36C-7.62939e-06 34.3699 0.108148 32.7659 0.316995 31.1955C0.637724 28.7858 1.19713 26.4545 1.96912 24.2238C2.26747 23.3621 2.59567 22.5117 2.95742 21.6798C6.19828 14.212 11.8968 8.05719 19.0275 4.23748C19.2363 4.12558 19.4489 4.0174 19.6577 3.90922C19.8069 3.83462 19.9561 3.75629 20.1052 3.68541C24.8938 1.32421 30.2828 0 35.9813 0C36.3655 0 36.7421 0.00372563 37.1188 0.0186464C50.045 0.417776 61.2518 7.63569 67.2711 18.1958C70.2733 23.4517 71.9813 29.5244 71.9813 36.0037Z" fill="#30B5ED"/>
<path d="M67.282 18.1993C61.2627 7.6429 50.0558 0.425004 37.1297 0.0221444C36.753 0.00722365 36.3726 0.00348663 35.9922 0.00348663C30.2937 0.00348663 24.9009 1.3277 20.1161 3.68891C19.9669 3.75978 19.8178 3.83812 19.6686 3.91272C19.4597 4.0209 19.2472 4.12908 19.0383 4.24098C17.789 4.90495 16.4016 5.37496 15.0516 6.02774C3.75146 14.0775 1.1819 19.1207 2.96828 21.6796C6.48885 26.7303 26.9558 22.1235 30.7487 11.9102C33.5905 11.6156 35.8132 9.45577 37.9054 8.26958C38.614 11.4925 31.5579 12.8241 32.1957 17.0691C30.8494 21.3625 36.492 22.5823 38.8825 19.6429C40.5384 18.3448 39.4643 15.1294 41.1947 14.499C46.8784 12.9174 43.0744 4.99075 38.3567 4.88257C58.6185 2.27144 67.4759 30.9864 49.1048 39.9351C39.4121 43.4004 46.166 39.7001 50.026 35.2537C57.8652 29.5242 60.1178 3.04359 47.6765 19.8443C46.4159 24.3168 41.232 23.3246 38.9011 26.1633C36.5777 32.1129 24.0767 28.4499 23.8642 35.3209C28.8317 37.6298 21.3505 37.1599 18.9488 37.6858C15.4506 43.4601 30.5473 39.577 33.1467 38.4691C38.5319 40.0731 17.1065 47.5559 14.5332 47.3694C11.8816 49.1151 4.35562 45.6386 1.48771 46.2429C0.491955 46.4517 0.055609 47.1567 0.585185 48.7458C0.93202 49.7977 1.92405 50.5139 3.03541 50.5065H3.05405C4.29222 50.499 5.55649 50.4766 6.79838 51.1443C6.0898 51.715 5.0381 52.1626 4.08337 52.6401C2.2224 53.5801 0.719451 54.6395 2.85267 56.9522C4.13932 59.1828 6.31729 59.858 8.89431 59.679C17.9046 59.056 31.8488 48.0259 30.1892 56.5941C21.3617 64.2335 15.6818 60.8503 12.2359 63.0287C11.6317 63.4092 11.0984 63.965 10.6248 64.7744C10.1847 67.5012 14.6003 67.9973 19.2695 67.8742C23.2414 67.7697 27.3885 67.2214 28.8765 67.2214C30.2825 67.2214 29.3128 67.7101 23.5621 69.5379C28.6117 71.0374 33.2548 71.8132 37.4877 71.9662C54.0239 71.2985 67.6847 59.4738 71.1494 43.8145C71.7088 41.3004 71.9997 38.6855 71.9997 35.9998C71.981 29.5242 70.2729 23.4514 67.282 18.1993ZM42.0562 64.2373C47.1693 60.8353 50.9099 55.8033 57.041 54.0874C63.2318 51.1219 64.0262 43.4639 68.5835 38.7974C67.9234 48.6898 53.8039 62.1222 42.0562 64.2373ZM43.7158 68.3703C43.8724 68.4076 43.9769 68.4971 44.0104 68.2882C43.8874 68.236 43.8202 68.3106 43.7158 68.3703Z" fill="#F5F5F5"/>
<path d="M14.2612 41.6329C8.18603 41.9724 12.8068 35.023 16.0103 36.6979C18.2107 38.1974 17.1217 41.9239 14.2612 41.6329Z" fill="#F5F5F5"/>
</svg>
