<svg width="120" height="43" viewBox="0 0 120 43" fill="none" xmlns="http://www.w3.org/2000/svg">
<path d="M57.4255 15.5972C58.2263 15.1661 59.1432 14.9517 60.1738 14.9517C61.3729 14.9517 62.4582 15.2471 63.4275 15.8379C64.3991 16.4287 65.1671 17.2689 65.7317 18.3586C66.2962 19.4483 66.5807 20.7109 66.5807 22.1441C66.5807 23.5795 66.2984 24.8508 65.7317 25.9558C65.1649 27.063 64.3969 27.9186 63.4275 28.5269C62.456 29.1352 61.3707 29.4394 60.1738 29.4394C59.1432 29.4394 58.2373 29.2271 57.4517 28.807C56.6662 28.3847 56.0294 27.853 55.5393 27.2118V35.8988H51.9923V15.1814H55.5393V17.2076C55.9944 16.5643 56.6224 16.0282 57.4255 15.5972ZM62.4407 19.9538C62.095 19.3367 61.6376 18.8684 61.0731 18.549C60.5064 18.2295 59.8959 18.0676 59.2373 18.0676C58.5961 18.0676 57.9922 18.2317 57.4255 18.5621C56.8587 18.8903 56.4036 19.3695 56.0579 19.9931C55.7122 20.6189 55.5393 21.352 55.5393 22.1966C55.5393 23.0412 55.7122 23.7764 56.0579 24.4001C56.4036 25.0259 56.8587 25.5029 57.4255 25.8311C57.99 26.1593 58.5939 26.3256 59.2373 26.3256C59.8959 26.3256 60.5086 26.1571 61.0731 25.818C61.6376 25.481 62.095 24.9996 62.4407 24.3738C62.7864 23.7502 62.9593 23.0062 62.9593 22.1441C62.9593 21.2995 62.7864 20.5708 62.4407 19.9538Z" fill="#F5F5F5"/>
<path d="M71.7492 28.5399C70.6683 27.9404 69.8193 27.0914 69.2044 25.9951C68.5874 24.8989 68.281 23.6319 68.281 22.1965C68.281 20.7611 68.5983 19.4941 69.2307 18.3979C69.863 17.3016 70.7295 16.4526 71.8258 15.8531C72.9221 15.2535 74.1474 14.9537 75.4975 14.9537C76.8476 14.9537 78.073 15.2535 79.1692 15.8531C80.2677 16.4526 81.132 17.3016 81.7643 18.3979C82.3967 19.4963 82.714 20.7611 82.714 22.1965C82.714 23.6319 82.388 24.8989 81.7381 25.9951C81.0882 27.0936 80.2086 27.9404 79.1036 28.5399C77.9986 29.1395 76.7601 29.4393 75.3925 29.4393C74.0446 29.4393 72.828 29.1395 71.7492 28.5399ZM77.2065 25.8813C77.771 25.5684 78.2239 25.1002 78.5609 24.4765C78.8979 23.8529 79.0664 23.0914 79.0664 22.1965C79.0664 20.8639 78.7163 19.8377 78.0161 19.12C77.3159 18.4022 76.4581 18.0434 75.445 18.0434C74.4319 18.0434 73.5829 18.4022 72.9002 19.12C72.2153 19.8377 71.8739 20.8639 71.8739 22.1965C71.8739 23.5313 72.2065 24.5553 72.8739 25.273C73.5413 25.9907 74.3816 26.3496 75.3947 26.3496C76.0358 26.3496 76.6397 26.192 77.2065 25.8813Z" fill="#F5F5F5"/>
<path d="M88.8693 10.4681V29.2096H85.3223V10.4681H88.8693Z" fill="#F5F5F5"/>
<path d="M105.611 15.1791V29.2116H102.04V27.4393C101.584 28.0476 100.989 28.5246 100.254 28.8703C99.5188 29.216 98.7224 29.3889 97.8602 29.3889C96.7618 29.3889 95.7924 29.1569 94.9478 28.6931C94.1032 28.2292 93.4402 27.5443 92.9588 26.6406C92.4774 25.7369 92.2367 24.6603 92.2367 23.4109V15.1791H95.7815V22.9032C95.7815 24.017 96.0594 24.8748 96.6173 25.4743C97.1753 26.0739 97.9346 26.3736 98.8974 26.3736C99.8755 26.3736 100.646 26.0739 101.202 25.4743C101.759 24.8748 102.037 24.017 102.037 22.9032V15.1791H105.611Z" fill="#F5F5F5"/>
<path d="M111.385 28.8178C110.473 28.4042 109.75 27.8419 109.219 27.1329C108.687 26.424 108.396 25.6384 108.346 24.7785H111.917C111.985 25.319 112.249 25.7653 112.715 26.1198C113.179 26.4743 113.757 26.6515 114.451 26.6515C115.127 26.6515 115.654 26.5159 116.033 26.2467C116.413 25.9776 116.602 25.6297 116.602 25.2074C116.602 24.7522 116.37 24.4087 115.906 24.1811C115.442 23.9536 114.702 23.7041 113.689 23.435C112.641 23.1811 111.785 22.9207 111.118 22.6494C110.451 22.3803 109.877 21.9645 109.396 21.4087C108.915 20.8508 108.674 20.1002 108.674 19.155C108.674 18.3782 108.897 17.6692 109.346 17.0281C109.792 16.387 110.435 15.8793 111.271 15.5073C112.107 15.1353 113.09 14.9493 114.223 14.9493C115.895 14.9493 117.227 15.3673 118.225 16.2032C119.221 17.039 119.77 18.1659 119.871 19.5838H116.477C116.427 19.0259 116.195 18.5839 115.781 18.2534C115.367 17.9252 114.814 17.7589 114.122 17.7589C113.481 17.7589 112.987 17.8771 112.641 18.1134C112.295 18.3497 112.122 18.6801 112.122 19.1003C112.122 19.5729 112.359 19.9317 112.831 20.1768C113.304 20.4219 114.039 20.6713 115.035 20.9252C116.048 21.179 116.884 21.4394 117.542 21.7107C118.201 21.982 118.77 22.4 119.251 22.9645C119.733 23.5312 119.982 24.2774 120 25.2052C120 26.0148 119.777 26.7413 119.328 27.3824C118.879 28.0235 118.238 28.5268 117.402 28.89C116.567 29.2532 115.591 29.4349 114.477 29.4349C113.326 29.4392 112.297 29.2314 111.385 28.8178Z" fill="#F5F5F5"/>
<path d="M42.2334 21.12C42.2334 22.6954 42.0605 24.2293 41.7345 25.7041C39.7017 34.8899 31.6887 41.8285 21.9843 42.218C21.6976 42.2312 21.4066 42.2355 21.1156 42.2355C17.5708 42.2355 14.2273 41.3603 11.2952 39.8176C10.5512 39.426 9.83133 38.9905 9.14425 38.5157C8.45499 38.0409 7.79636 37.5245 7.16836 36.9731C6.47253 36.3626 5.81827 35.7061 5.20997 35.0081C4.1159 33.7543 3.16406 32.3692 2.38727 30.8791C2.17283 30.4699 1.97152 30.052 1.78334 29.6253C1.42668 28.8178 1.12252 27.9842 0.86651 27.1264C0.301969 25.2227 0 23.2053 0 21.1178C0 20.1616 0.0634575 19.2206 0.185994 18.2994C0.374174 16.8859 0.702394 15.5183 1.15534 14.2098C1.33039 13.7043 1.52295 13.2054 1.7352 12.7175C3.6367 8.33683 6.98018 4.72639 11.1639 2.48573C11.2864 2.42008 11.4112 2.35663 11.5337 2.29317C11.6212 2.24941 11.7088 2.20345 11.7963 2.16188C14.6059 0.776785 17.7677 0 21.1112 0C21.3366 0 21.5576 0.00218547 21.7786 0.010938C29.3627 0.245069 35.9381 4.47913 39.4697 10.6738C41.2312 13.7569 42.2334 17.3192 42.2334 21.12Z" fill="#30B5ED"/>
<path d="M39.4762 10.6758C35.9446 4.48339 29.3692 0.249339 21.7851 0.0130199C21.5641 0.00426735 21.3409 0.0020752 21.1177 0.0020752C17.7742 0.0020752 14.6102 0.778867 11.8028 2.16396C11.7153 2.20554 11.6277 2.25149 11.5402 2.29525C11.4177 2.35871 11.293 2.42217 11.1704 2.48781C10.4374 2.8773 9.62341 3.15301 8.8313 3.53593C2.20122 8.25795 0.693594 11.2163 1.74171 12.7174C3.80732 15.6801 15.8159 12.9778 18.0412 6.98663C19.7086 6.81377 21.0127 5.54683 22.2402 4.851C22.656 6.74156 18.516 7.52273 18.8902 10.0128C18.1003 12.5314 21.4109 13.2469 22.8135 11.5227C23.7851 10.7612 23.1549 8.875 24.1702 8.50521C27.5049 7.57743 25.273 2.92763 22.505 2.86417C34.3932 1.33247 39.59 18.1768 28.8112 23.4262C23.1243 25.4589 27.087 23.2883 29.3517 20.68C33.9512 17.319 35.2728 1.78541 27.9732 11.6408C27.2336 14.2644 24.1921 13.6824 22.8245 15.3475C21.4613 18.8376 14.1266 16.6889 14.0019 20.7194C16.9165 22.0739 12.5271 21.7982 11.1179 22.1067C9.06543 25.494 17.923 23.2161 19.4482 22.5662C22.6078 23.5071 10.037 27.8965 8.52714 27.7871C6.97137 28.8112 2.5557 26.7718 0.873021 27.1263C0.288787 27.2488 0.0327711 27.6624 0.343487 28.5945C0.546985 29.2116 1.12903 29.6317 1.7811 29.6274H1.79204C2.5185 29.623 3.26028 29.6099 3.98894 30.0015C3.57319 30.3363 2.95613 30.5989 2.39597 30.879C1.30408 31.4304 0.422264 32.0518 1.67388 33.4085C2.42879 34.717 3.70666 35.113 5.21867 35.008C10.5052 34.6426 18.6867 28.1722 17.713 33.1984C12.5336 37.6797 9.20109 35.6951 7.17925 36.973C6.82477 37.1961 6.51187 37.5222 6.23397 37.997C5.97577 39.5965 8.56653 39.8876 11.3061 39.8154C13.6365 39.7541 16.0697 39.4324 16.9427 39.4324C17.7677 39.4324 17.1988 39.7191 13.8246 40.7913C16.7874 41.6709 19.5116 42.126 21.9952 42.2157C31.6974 41.8241 39.7126 34.8877 41.7453 25.7018C42.0736 24.227 42.2442 22.6931 42.2442 21.1177C42.2333 17.319 41.2311 13.7567 39.4762 10.6758ZM24.6756 37.6819C27.6756 35.6863 29.8703 32.7345 33.4676 31.728C37.0999 29.9884 37.566 25.4961 40.2399 22.7588C39.8526 28.5617 31.5683 36.4412 24.6756 37.6819ZM25.6494 40.1064C25.7413 40.1283 25.8025 40.1808 25.8222 40.0582C25.75 40.0276 25.7106 40.0714 25.6494 40.1064Z" fill="#F5F5F5"/>
<path d="M8.36748 24.4221C4.80299 24.6212 7.5141 20.5447 9.39372 21.5272C10.6847 22.4068 10.0458 24.5928 8.36748 24.4221Z" fill="#F5F5F5"/>
</svg>
