<svg width="24" height="25" viewBox="0 0 24 25" fill="none" xmlns="http://www.w3.org/2000/svg">
<g clip-path="url(#clip0_842_1589)">
<path d="M11.9953 0.5C18.6257 0.5 24 5.87321 24 12.5024C24 19.1315 18.6257 24.5 12 24.5C5.36954 24.5 3.11002e-06 19.1268 3.11002e-06 12.5024C-0.00471944 5.87321 5.36954 0.5 11.9953 0.5Z" fill="#8247E5"/>
<path d="M16.2417 9.35599C15.9387 9.18626 15.5513 9.18626 15.2086 9.35599L12.7947 10.7526L11.1556 11.6401L8.78642 13.0318C8.48344 13.2016 8.09603 13.2016 7.75331 13.0318L5.90066 11.931C5.59768 11.7613 5.38411 11.4218 5.38411 11.0436V8.92924C5.38411 8.58978 5.55795 8.25517 5.90066 8.04179L7.75331 6.98462C8.05629 6.81489 8.44371 6.81489 8.78642 6.98462L10.6391 8.08544C10.9421 8.25517 11.1556 8.59463 11.1556 8.97288V10.3695L12.7947 9.43843V8.003C12.7947 7.66354 12.6209 7.32893 12.2781 7.11556L8.83113 5.1273C8.52815 4.95757 8.14073 4.95757 7.79801 5.1273L4.26656 7.1592C3.92384 7.32893 3.75 7.66839 3.75 8.003V11.9747C3.75 12.3141 3.92384 12.6487 4.26656 12.8621L7.75828 14.8504C8.06126 15.0201 8.44868 15.0201 8.79139 14.8504L11.1606 13.4974L12.7997 12.5663L15.1689 11.2133C15.4719 11.0436 15.8593 11.0436 16.202 11.2133L18.0546 12.2705C18.3576 12.4402 18.5712 12.7797 18.5712 13.1579V15.2723C18.5712 15.6117 18.3974 15.9463 18.0546 16.1597L16.2467 17.2169C15.9437 17.3866 15.5563 17.3866 15.2136 17.2169L13.356 16.1597C13.053 15.99 12.8394 15.6505 12.8394 15.2723V13.9193L11.2003 14.8504V16.247C11.2003 16.5865 11.3742 16.9211 11.7169 17.1344L15.2086 19.1227C15.5116 19.2924 15.899 19.2924 16.2417 19.1227L19.7334 17.1344C20.0364 16.9647 20.25 16.6253 20.25 16.247V12.2317C20.25 11.8922 20.0762 11.5576 19.7334 11.3442L16.2417 9.35599Z" fill="white"/>
</g>
<defs>
<clipPath id="clip0_842_1589">
<rect width="24" height="24" fill="white" transform="translate(0 0.5)"/>
</clipPath>
</defs>
</svg>
