<svg width="32" height="32" viewBox="0 0 32 32" fill="none" xmlns="http://www.w3.org/2000/svg">
<circle cx="16" cy="16" r="16" fill="#BDBDC7"/>
<path d="M11.5 11.6876C11.5 11.6876 11.5675 10.1407 13.0722 8.90038C13.9656 8.16397 15.0386 7.95069 16 7.93756C16.878 7.92678 17.6627 8.07537 18.1319 8.30412C18.9339 8.69694 20.5 9.65319 20.5 11.6876C20.5 13.8284 19.1322 14.7987 17.5773 15.8679C16.0225 16.9371 15.625 17.9857 15.625 19.1876" stroke="#131315" stroke-width="2" stroke-miterlimit="10" stroke-linecap="round"/>
<path d="M15.625 24.2493C16.4534 24.2493 17.125 23.5777 17.125 22.7493C17.125 21.9208 16.4534 21.2493 15.625 21.2493C14.7966 21.2493 14.125 21.9208 14.125 22.7493C14.125 23.5777 14.7966 24.2493 15.625 24.2493Z" fill="#131315"/>
</svg>
