<svg width="24" height="24" viewBox="0 0 24 24" fill="none" xmlns="http://www.w3.org/2000/svg">
<path d="M12 24C18.6504 24 24 18.6504 24 12C24 5.3496 18.6504 0 12 0C5.3496 0 0 5.3496 0 12C0 18.6504 5.3496 24 12 24Z" fill="#2775CA"/>
<path d="M15.3 13.8996C15.3 12.15 14.25 11.55 12.15 11.2992C10.65 11.0988 10.35 10.6992 10.35 9.99961C10.35 9.30001 10.8504 8.85001 11.85 8.85001C12.75 8.85001 13.2504 9.15001 13.5 9.90001C13.5504 10.05 13.7004 10.1496 13.8504 10.1496H14.6508C14.8512 10.1496 15.0012 9.99961 15.0012 9.79921V9.74881C14.8008 8.64841 13.9008 7.79881 12.7512 7.69921V6.49921C12.7512 6.29881 12.6012 6.14881 12.3516 6.09961H11.6016C11.4012 6.09961 11.2512 6.24961 11.202 6.49921V7.64881C9.70196 7.84921 8.75156 8.84881 8.75156 10.0992C8.75156 11.7492 9.75116 12.3996 11.8512 12.6492C13.2516 12.8988 13.7016 13.1988 13.7016 13.9992C13.7016 14.7996 13.002 15.3492 12.0516 15.3492C10.752 15.3492 10.302 14.7996 10.152 14.0496C10.1016 13.8492 9.95156 13.7496 9.80156 13.7496H8.95196C8.75156 13.7496 8.60156 13.8996 8.60156 14.1V14.1504C8.80196 15.4008 9.60116 16.3008 11.2512 16.5504V17.7504C11.2512 17.9508 11.4012 18.1008 11.6508 18.15H12.4008C12.6012 18.15 12.7512 18 12.8004 17.7504V16.5504C14.2992 16.2996 15.3 15.2496 15.3 13.8996Z" fill="white"/>
<path d="M9.45033 19.1497C5.55033 17.7493 3.54993 13.3993 5.00073 9.54969C5.75073 7.44969 7.40073 5.85009 9.45033 5.10009C9.65073 5.00049 9.75033 4.85049 9.75033 4.59969V3.90009C9.75033 3.69969 9.65073 3.54969 9.45033 3.50049C9.39993 3.50049 9.30033 3.50049 9.24993 3.55089C4.50033 5.05089 1.89993 10.1005 3.39993 14.8513C4.29993 17.6509 6.45033 19.8013 9.24993 20.7013C9.45033 20.8009 9.64953 20.7013 9.69993 20.5009C9.75033 20.4505 9.75033 20.4013 9.75033 20.3005V19.6009C9.75033 19.4497 9.60033 19.2505 9.45033 19.1497ZM14.7495 3.54969C14.5491 3.45009 14.3499 3.54969 14.2995 3.75009C14.2491 3.80049 14.2491 3.84969 14.2491 3.95049V4.65009C14.2491 4.85049 14.3991 5.04969 14.5491 5.15049C18.4491 6.55089 20.4495 10.9009 18.9987 14.7505C18.2487 16.8505 16.5987 18.4501 14.5491 19.2001C14.3487 19.2997 14.2491 19.4497 14.2491 19.7005V20.4001C14.2491 20.6005 14.3487 20.7505 14.5491 20.7997C14.5995 20.7997 14.6991 20.7997 14.7495 20.7493C19.4991 19.2493 22.0995 14.1997 20.5995 9.44889C19.6995 6.60009 17.4999 4.44969 14.7495 3.54969Z" fill="white"/>
</svg>
