<svg width="25" height="24" viewBox="0 0 25 24" fill="none" xmlns="http://www.w3.org/2000/svg">
<g clip-path="url(#clip0_751_5021)">
<path d="M12.667 24C19.2944 24 24.667 18.6274 24.667 12C24.667 5.37258 19.2944 0 12.667 0C6.03957 0 0.666992 5.37258 0.666992 12C0.666992 18.6274 6.03957 24 12.667 24Z" fill="#26A17B"/>
<path fill-rule="evenodd" clip-rule="evenodd" d="M14.1081 13.0373V13.0358C14.0256 13.0418 13.6004 13.0673 12.6516 13.0673C11.8941 13.0673 11.3609 13.0448 11.1734 13.0358V13.038C8.25735 12.9098 6.08085 12.402 6.08085 11.7945C6.08085 11.1878 8.25735 10.68 11.1734 10.5495V12.5325C11.3639 12.546 11.9099 12.5783 12.6644 12.5783C13.5696 12.5783 14.0234 12.5408 14.1081 12.5333V10.551C17.0181 10.6808 19.1894 11.1885 19.1894 11.7945C19.1894 12.402 17.0181 12.9083 14.1081 13.0373ZM14.1081 10.3448V8.57026H18.1686V5.86426H7.11285V8.57026H11.1734V10.344C7.87335 10.4955 5.3916 11.1495 5.3916 11.9325C5.3916 12.7155 7.87335 13.3688 11.1734 13.521V19.2075H14.1081V13.5195C17.4029 13.368 19.8786 12.7148 19.8786 11.9325C19.8786 11.1503 17.4029 10.497 14.1081 10.3448Z" fill="white"/>
</g>
<defs>
<clipPath id="clip0_751_5021">
<rect width="24" height="24" fill="white" transform="translate(0.666992)"/>
</clipPath>
</defs>
</svg>
