<svg width="33" height="33" viewBox="0 0 33 33" fill="none" xmlns="http://www.w3.org/2000/svg">
<path d="M10.0065 12.0333C13.5908 8.21089 19.4092 8.21089 22.9935 12.0333L23.425 12.4969C23.606 12.6869 23.606 12.9985 23.425 13.1884L21.9495 14.7615C21.8591 14.8603 21.7129 14.8603 21.6224 14.7615L21.0308 14.1308C18.5253 11.4634 14.4747 11.4634 11.9692 14.1308L11.3358 14.8071C11.2453 14.9059 11.0992 14.9059 11.0087 14.8071L9.53322 13.234C9.35226 13.0441 9.35226 12.7325 9.53322 12.5425L10.0065 12.0333ZM26.0489 15.2858L27.3643 16.6841C27.5452 16.8741 27.5452 17.1857 27.3643 17.3757L21.4415 23.6907C21.2605 23.8807 20.9682 23.8807 20.7942 23.6907L16.5905 19.2071C16.5487 19.1615 16.4722 19.1615 16.4304 19.2071L12.2267 23.6907C12.0457 23.8807 11.7534 23.8807 11.5794 23.6907L5.63572 17.3757C5.45476 17.1857 5.45476 16.8741 5.63572 16.6841L6.95112 15.2858C7.13208 15.0959 7.42439 15.0959 7.59839 15.2858L11.8021 19.7694C11.8439 19.815 11.9204 19.815 11.9622 19.7694L16.1659 15.2858C16.3469 15.0959 16.6392 15.0959 16.8132 15.2858L21.0169 19.7694C21.0587 19.815 21.1352 19.815 21.177 19.7694L25.3807 15.2858C25.5756 15.0959 25.8679 15.0959 26.0489 15.2858Z" fill="white"/>
</svg>
