<svg width="25" height="24" viewBox="0 0 25 24" fill="none" xmlns="http://www.w3.org/2000/svg">
<g clip-path="url(#clip0_751_5040)">
<path d="M21.1253 0H5.75263C3.98052 0 2.54395 1.43658 2.54395 3.20868V18.5814C2.54395 20.3535 3.98052 21.7901 5.75263 21.7901H21.1253C22.8974 21.7901 24.334 20.3535 24.334 18.5814V3.20868C24.334 1.43658 22.8974 0 21.1253 0Z" fill="#939393"/>
<path d="M18.9154 2.20996H3.54266C1.77056 2.20996 0.333984 3.64654 0.333984 5.41864V20.7914C0.333984 22.5635 1.77056 24 3.54266 24H18.9154C20.6875 24 22.1241 22.5635 22.1241 20.7914V5.41864C22.1241 3.64654 20.6875 2.20996 18.9154 2.20996Z" fill="#303030"/>
<path d="M11.2278 4.41333L11.1113 4.80933V16.3033L11.2278 16.4196L16.5629 13.2661L11.2278 4.41333Z" fill="#9B9B9B"/>
<path d="M11.2277 4.41333L5.89258 13.2662L11.2277 16.4199" fill="white"/>
<path d="M11.2279 17.4304L11.1621 17.5105V21.6055L11.2279 21.7967L16.5661 14.2781L11.2279 17.4304Z" fill="#9B9B9B"/>
<path d="M11.2277 21.7967V17.4302L5.89258 14.2781" fill="white"/>
<path d="M11.2275 16.4199L16.5625 13.2661L11.2275 10.8411V16.4199Z" fill="#666666"/>
<path d="M5.89258 13.2661L11.2275 16.4199V10.8411" fill="#9B9B9B"/>
</g>
<defs>
<clipPath id="clip0_751_5040">
<rect width="24" height="24" fill="white" transform="translate(0.333984)"/>
</clipPath>
</defs>
</svg>
